<svg viewBox="0 0 600 600" xmlns="http://www.w3.org/2000/svg">

<g>
<path class="distrito" d="M190 296L185 291L186 287L182 282L180 283L146 248L147 323L172 297L180 306L181 305z" id="adolfo-alsina" title="Adolfo Alsina"/>

<path class="distrito" d="M289 154L285 150L279 156L280 159L278 161L279 164L285 170L283 172L289 180L299 170L298 168L293 167L295 165L286 157z" id="alberti" title="Alberti"/>

<path class="distrito" d="M377 156L378 155L376 153L376 150L371 154L373 158z" id="almirante-brown" title="Almirante Brown"/>

<path class="distrito" d="M379 146L376 143L373 144L376 148z" id="avellaneda" title="Avellaneda"/>

<path class="distrito" d="M394 277L390 280L378 269L386 261L371 245L358 259L359 261L345 274L342 279L364 300L365 298L372 305L375 301L379 304L384 298L387 301L402 284z" id="ayacucho" title="Ayacucho"/>

<path class="distrito" d="M323 232L317 240L313 235L301 249L299 249L304 254L298 260L294 257L293 260L300 266L299 271L295 275L295 281L291 286L301 295L299 298L302 301L307 297L310 290L314 289L324 278L326 278L329 267L333 263L334 256L339 250L334 244L335 243L332 241z" id="azul" title="Azul"/>

<path class="distrito" d="M219 359L217 361L212 357L210 359L205 354L200 359L200 356L198 354L194 359L192 357L181 367L182 369L188 372L190 377L202 380L206 375L213 375L216 371L217 372L221 369L219 364z" id="bahia-blanca" title="Bahia Blanca"/>

<path class="distrito" d="M387 301L384 298L379 304L375 301L372 305L365 298L355 309L368 322L364 326L379 341L403 316z" id="balcarce" title="Balcarce"/>

<path class="distrito" d="M338 98L334 97L334 93L328 94L324 92L324 89L318 101L311 109L315 117L318 118L322 114L325 116L328 111L331 110L330 105L333 105L335 103L332 101L334 98z" id="lezama" title="Lezama"/>

<path class="distrito" d="M299 99L296 98L293 94L290 101L289 109L292 112L291 119L299 123L301 119L301 113L304 113L310 108z" id="arrecifes" title="Arrecifes"/>

<path class="distrito" d="M390 151L382 149L379 151L382 153L383 156L380 159L382 161L388 154z" id="berazategui" title="Berazategui"/>

<path class="distrito" d="M405 159L397 155L395 158L402 162z" id="berisso" title="Berisso"/>

<path class="distrito" d="M261 210L256 215L253 212L235 231L236 233L222 247L227 251L225 254L232 261L238 255L243 261L260 244L258 243L261 240L264 233L263 231L269 227L276 219L271 215L268 217z" id="bolivar" title="Bolivar"/>

<path class="distrito" d="M279 156L274 153L269 144L264 148L265 149L263 152L267 156L262 162L266 166L261 172L276 186L285 176L283 172L285 170L279 164L278 161L280 159z" id="bragado" title="Bragado"/>

<path class="distrito" d="M392 172L389 176L388 175L391 173L384 166L386 164L384 162L371 176L381 186L383 185L385 187L396 176z" id="brandsen" title="Brandsen"/>

<path class="distrito" d="M361 110L356 105L347 106L345 114L346 116L341 119L349 129L352 123L356 124L356 121L359 122L360 118L357 118L355 113z" id="campana" title="Campana"/>

<path class="distrito" d="M362 157L355 161L349 169L352 172L350 173L356 179L357 178L360 180L359 182L365 187L367 184L365 182L370 177L365 173L364 166L366 164L364 161z" id="cañuelas" title="Cañuelas"/>

<path class="distrito" d="M315 117L313 115L311 109L312 108L308 109L304 113L301 113L301 119L299 123L301 124L305 121L305 123L310 120z" id="capitan-sarmiento" title="Capitan Sarmiento"/>

<path class="distrito" d="M253 212L250 209L253 206L231 184L222 193L229 199L228 201L232 205L226 211L237 223L239 220L242 223z" id="carlos-casares" title="Carlos Casares"/>

<path class="distrito" d="M197 172L188 164L185 168L182 165L178 168L180 170L179 171L177 169L169 178L169 181L171 183L170 184L173 187L174 186L194 207L205 196L204 195L207 192L210 194L214 190L200 175z" id="carlos-tejedor" title="Carlos Tejedor"/>

<path class="distrito" d="M310 120L305 123L305 121L294 131L299 138L301 136L305 142L307 141L311 137L311 133L315 130L314 124z" id="carmen-de-areco" title="Carmen De Areco"/>

<path class="distrito" d="M202 440L200 441L199 439L194 439L191 436L191 434L187 431L188 429L185 425L175 421L167 421L160 418L158 415L146 410L146 493L155 493L161 496L168 502L173 509L173 512L178 512L195 502L199 493L199 489L201 488L202 485L190 477L188 468L194 459L195 442L202 442z" id="patagones" title="Patagones"/>

<path class="distrito" d="M420 205L415 207L414 210L405 210L403 215L399 216L391 222L392 223L387 228L396 236L397 234L400 235L401 229L406 231L407 225L429 231L426 229L420 218L419 210z" id="castelli" title="Castelli"/>

<path class="distrito" d="M240 109L245 115L250 112L259 102L257 100L261 96L259 94L263 90L259 85L259 88L251 96z" id="colon" title="Colon"/>

<path class="distrito" d="M267 352L262 356L253 350L246 350L225 367L225 369L222 372L223 381L233 388L251 388L251 391L277 387L272 367L273 363L266 355z" id="coronel-dorrego" title="Coronel Dorrego"/>

<path class="distrito" d="M262 329L261 330L247 315L224 338L220 343L223 349L219 359L219 364L222 372L225 369L225 367L246 350L253 350L262 356L264 355L267 352L266 346L267 340L269 339L266 334z" id="coronel-pringles" title="Coronel Pringles"/>

<path class="distrito" d="M222 372L221 369L217 372L216 371L213 375L206 375L202 380L206 387L208 388L218 391L222 389L228 392L234 391L234 388L223 381L222 374z" id="coronel-de-marina-l-rosales" title="Coronel De Marina L Rosales"/>

<path class="distrito" d="M227 275L223 270L220 273L219 272L213 279L211 277L190 296L207 319L205 329L209 333L213 333L220 343L232 330L227 325L235 318L230 314L233 311L228 306L230 303L221 293L223 288L221 281z" id="coronel-suarez" title="Coronel Suarez"/>

<path class="distrito" d="M275 131L269 136L271 137L266 143L274 153L279 156L285 150L289 154L292 151L291 148L295 144L297 146L300 144L302 146L305 142L303 140L304 139L301 136L299 138L294 131L291 133L289 132L286 135L283 133L282 135L278 131L277 132z" id="chacabuco" title="Chacabuco"/>

<path class="distrito" d="M384 212L385 208L390 203L393 205L398 201L403 205L412 208L417 207L421 204L417 199L417 192L414 190L405 191L395 184L394 185L392 182L389 183L382 188L384 190L371 204L370 207L372 207L376 212L379 209L382 210L383 212z" id="chascomus" title="Chascomus"/>

<path class="distrito" d="M303 145L302 146L300 144L297 146L295 144L291 148L292 151L286 157L295 165L293 167L298 168L301 171L305 170L308 173L318 163L309 154L310 152z" id="chivilcoy" title="Chivilcoy"/>

<path class="distrito" d="M200 233L188 245L191 248L192 247L199 255L198 256L200 258L201 257L209 265L209 268L213 273L216 275L223 270L228 276L243 261L238 255L232 261L225 254L227 251L222 247L220 249L213 241L211 242L203 233L202 234z" id="daireaux" title="Daireaux"/>

<path class="distrito" d="M417 228L407 225L406 231L401 229L400 235L397 234L396 236L392 234L401 244L401 247L398 251L407 260L418 248L416 246L421 240L415 238z" id="dolores" title="Dolores"/>

<path class="distrito" d="M397 154L393 154L390 151L388 154L394 158z" id="ensenada" title="Ensenada"/>

<path class="distrito" d="M359 132L358 130L362 123L356 121L356 124L352 123L350 125L354 131L356 130L358 133z" id="escobar" title="Escobar"/>

<path class="distrito" d="M372 153L369 148L369 159L372 157L371 154z" id="esteban-etcheverria" title="Esteban Etcheverria"/>

<path class="distrito" d="M349 129L341 119L332 117L328 121L332 123L331 124L341 134L347 127z" id="exaltacion-de-la-cruz" title="Exaltacion De La Cruz"/>

<path class="distrito" d="M382 161L380 159L383 156L382 153L379 151L376 153L379 158L377 159L379 164z" id="florencio-varela" title="Florencio Varela"/>

<path class="distrito" d="M389 331L379 341L376 338L376 348L380 359L390 355L401 347L398 335L397 337L394 334L393 335z" id="general-alvarado" title="General Alvarado"/>

<path class="distrito" d="M290 205L284 213L269 227L274 232L276 231L284 238L287 234L289 236L296 229L302 234L302 231L308 226L307 225L309 222L313 225L318 221L319 222L322 218L314 210L307 211L306 214L297 207L295 210z" id="general-alvear" title="General Alvear"/>

<path class="distrito" d="M250 112L245 115L240 109L225 126L227 128L230 125L231 127L233 125L237 129L236 130L240 133L242 130L246 131L245 128L247 128L250 124L252 125L254 121L257 123L258 121z" id="general-arenales" title="General Arenales"/>

<path class="distrito" d="M369 203L368 205L356 205L350 196L349 198L345 196L344 198L342 197L339 199L347 209L348 208L351 210L365 226L378 211L376 212L372 207L370 207L371 204z" id="general-belgrano" title="General Belgrano"/>

<path class="distrito" d="M407 260L398 251L401 247L401 244L392 235L382 245L387 249L381 254L386 261L378 269L390 280L394 277L391 274L394 270L393 269L395 267L396 268L403 261L404 263z" id="general-guido" title="General Guido"/>

<path class="distrito" d="M254 288L235 269L221 281L223 288L221 293L230 303L228 306L233 311L230 314L235 318L227 325L232 330L260 302L256 297L260 293z" id="general-lamadrid" title="General Lamadrid"/>

<path class="distrito" d="M344 150L342 148L336 155L349 169L356 161L352 158L353 157L348 154z" id="general-las-heras" title="General Las Heras"/>

<path class="distrito" d="M448 239L447 237L436 237L433 241L435 243L432 244L422 257L432 267L433 266L436 268L439 276L444 277L450 267L448 239z" id="general-lavalle" title="General Lavalle"/>

<path class="distrito" d="M444 277L439 276L436 268L433 266L432 267L429 264L426 264L426 271L422 271L423 276L414 277L415 282L411 282L406 288L427 306L442 282z" id="general-juan-madariaga" title="General Juan Madariaga"/>

<path class="distrito" d="M384 186L381 186L371 176L365 182L367 184L365 187L370 192L365 197L369 203L371 204L384 190L382 188z" id="general-paz" title="General Paz"/>

<path class="distrito" d="M218 129L197 129L193 144L200 146L197 149L196 154L199 154L199 156L205 162L210 157L214 161L224 150L220 145L222 143L220 140L216 143L210 137z" id="general-pinto" title="General Pinto"/>

<path class="distrito" d="M401 347L408 343L413 334L413 327L405 320L406 319L403 316L389 331L397 337L398 335z" id="general-pueyrredon" title="General Pueyrredon"/>

<path class="distrito" d="M352 146L349 137L339 145L344 150L346 150L349 147z" id="general-rodriguez" title="General Rodriguez"/>

<path class="distrito" d="M368 139L364 135L364 138L366 141L368 141z" id="general-san-martin" title="General San Martin"/>

<path class="distrito" d="M364 138L362 136L356 139L359 141L363 138z" id="san-miguel" title="San Miguel"/>

<path class="distrito" d="M263 152L262 150L259 153L253 146L246 152L249 155L236 168L241 174L242 173L248 178L252 174L255 177L266 166L262 162L267 156z" id="general-viamonte" title="General Viamonte"/>

<path class="distrito" d="M197 129L146 129L146 184L149 182L148 180L150 178L151 179L154 176L153 175L158 171L165 181L177 169L179 171L180 170L178 168L182 165L181 143L183 142L193 144L195 139z" id="general-villegas" title="General Villegas"/>

<path class="distrito" d="M315 333L303 321L299 325L296 325L289 318L286 320L281 316L283 314L279 310L273 316L275 317L262 329L269 339L275 344L283 334L299 349L305 343L308 347L310 345L310 342L317 335z" id="adolfo-gonzales-chaves" title="Adolfo Gonzales Chaves"/>

<path class="distrito" d="M188 245L165 268L180 283L182 282L186 287L185 291L190 296L211 277L213 279L216 275L209 268L209 265L201 257L200 258L198 256L199 255L192 247L191 248z" id="guamini" title="Guamini"/>

<path class="distrito" d="M242 223L239 220L237 223L235 221L232 221L227 225L221 228L220 227L212 234L213 235L210 238L208 236L207 238L211 242L213 241L220 249L236 233L235 231z" id="hipolito-yrigoyen" title="Hipolito Yrigoyen"/>

<path class="distrito" d="M310 290L307 297L302 301L299 298L301 295L291 286L281 297L279 296L278 297L285 304L279 310L283 314L281 316L286 320L289 318L296 325L299 325L303 321L315 332L336 313L321 299L320 300z" id="benito-juarez" title="Benito Juarez"/>

<path class="distrito" d="M253 124L250 124L247 128L245 128L246 131L242 130L238 134L242 138L239 141L246 147L245 148L248 151L253 146L259 153L262 150L263 152L265 149L264 148L268 144L266 143L271 137L259 126L256 127z" id="junin" title="Junin"/>

<path class="distrito" d="M367 144L366 143L359 151L357 151L357 155L360 158L370 147z" id="la-matanza" title="La Matanza"/>

<path class="distrito" d="M376 148L373 144L371 146L373 149L376 149z" id="lanus" title="Lanus"/>

<path class="distrito" d="M402 162L395 158L397 155L394 158L388 154L379 164L380 166L384 162L386 164L384 166L391 173L388 175L389 176L392 172z" id="la-plata" title="La Plata"/>

<path class="distrito" d="M279 296L263 279L254 288L260 293L256 297L260 302L247 315L261 330L275 317L273 316L285 304L278 297z" id="laprida" title="Laprida"/>

<path class="distrito" d="M359 220L351 210L348 208L347 209L339 200L340 202L334 208L327 208L316 212L314 210L322 218L320 220L328 227L323 232L332 241L341 235L343 232L347 230L348 231L354 226z" id="las-flores" title="Las Flores"/>

<path class="distrito" d="M240 133L236 130L237 129L233 125L231 127L230 125L227 128L225 126L222 129L218 129L210 137L216 143L220 140L225 146L228 145L231 141L235 145L242 138L238 134z" id="leandro-n-alem" title="Leandro N Alem"/>

<path class="distrito" d="M248 151L245 148L246 147L239 141L235 145L231 141L228 145L225 146L222 143L220 145L224 150L214 161L210 157L197 172L219 196L241 174L236 168L249 155L246 152z" id="lincoln" title="Lincoln"/>

<path class="distrito" d="M376 338L364 326L368 322L355 309L338 327L338 330L356 356L355 357L358 364L359 362L363 366L368 365L380 359L378 356L379 354L376 348L376 344z" id="loberia" title="Loberia"/>

<path class="distrito" d="M349 169L345 166L346 165L342 161L336 168L320 177L321 179L326 181L328 180L328 182L340 188L344 183L345 184L349 182L354 177L350 173L352 172z" id="lobos" title="Lobos"/>

<path class="distrito" d="M376 149L373 149L371 146L369 148L372 153L376 150z" id="lomas-de-zamora" title="Lomas De Zamora"/>

<path class="distrito" d="M343 132L341 134L337 129L335 131L336 133L330 136L338 152L342 148L339 145L347 138L345 135z" id="lujan" title="Lujan"/>

<path class="distrito" d="M424 176L414 165L405 159L392 172L396 176L389 183L392 182L394 185L395 184L400 188L404 184L406 185L409 183L406 180L408 179L411 185L414 181L412 181L415 178L419 179z" id="magdalena" title="Magdalena"/>

<path class="distrito" d="M422 257L415 252L404 263L403 261L396 268L395 267L391 274L406 288L411 282L415 282L414 277L423 276L422 271L426 271L426 264L429 264z" id="maipu" title="Maipu"/>

<path class="distrito" d="M413 327L415 322L428 307L402 284L387 301L406 319L405 320z" id="mar-chiquita" title="Mar Chiquita"/>

<path class="distrito" d="M352 146L344 150L353 157L352 158L355 161L357 161L360 158L357 155L357 151L353 147z" id="marcos-paz" title="Marcos Paz"/>

<path class="distrito" d="M338 152L330 136L322 141L320 139L317 142L315 140L313 143L322 150L322 154L324 156L327 155L328 157L336 152z" id="mercedes" title="Mercedes"/>

<path class="distrito" d="M361 146L358 143L357 145L352 146L357 151L359 151L362 147z" id="merlo" title="Merlo"/>

<path class="distrito" d="M354 177L349 182L345 184L344 183L340 188L345 190L343 194L349 198L350 196L356 205L368 205L368 200L365 197L370 192L359 182L360 180L357 178L356 179z" id="monte" title="Monte"/>

<path class="distrito" d="M352 146L357 145L359 141L354 136L351 140L352 146z" id="moreno" title="Moreno"/>

<path class="distrito" d="M366 143L363 141L361 146L362 147z" id="moron" title="Moron"/>

<path class="distrito" d="M338 152L328 157L327 155L324 156L317 161L318 163L308 173L313 176L319 174L321 175L320 177L336 168L342 161L336 155L338 153z" id="navarro" title="Navarro"/>

<path class="distrito" d="M363 366L359 362L358 364L355 357L356 356L338 330L341 321L338 318L339 314L337 311L333 317L328 320L315 333L327 340L335 342L332 345L330 351L332 356L327 360L330 362L330 365L326 367L327 370L331 376L341 374L358 367z" id="necochea" title="Necochea"/>

<path class="distrito" d="M276 186L261 172L255 177L252 174L248 178L242 173L231 184L253 206L250 209L256 215L280 190z" id="9-de-julio" title="9 De Julio"/>

<path class="distrito" d="M293 260L288 254L286 256L279 249L280 247L271 238L267 241L266 240L261 245L260 244L235 269L254 288L263 279L281 297L295 281L295 275L299 271L300 266L296 262z" id="olavarria" title="Olavarria"/>

<path class="distrito" d="M214 190L210 194L207 192L204 195L205 196L190 211L206 228L200 233L203 233L207 238L208 236L210 238L213 235L212 234L220 227L221 228L232 221L235 221L226 211L232 205L228 201L229 199L222 193L219 196z" id="pehuajo" title="Pehuajo"/>

<path class="distrito" d="M155 221L146 213L146 248L151 254L162 243L161 242L167 233z" id="pellegrini" title="Pellegrini"/>

<path class="distrito" d="M279 86L279 88L276 89L261 83L259 85L263 90L259 94L261 96L257 100L269 110L268 111L277 116L278 118L285 109L289 109L290 101L294 91L286 89L285 90L283 88z" id="pergamino" title="Pergamino"/>

<path class="distrito" d="M391 222L390 217L386 216L384 212L379 209L365 226L359 220L353 228L356 231L355 232L364 240L365 239L381 254L387 249L382 245L393 234L387 228L392 223z" id="pila" title="Pila"/>

<path class="distrito" d="M350 125L349 129L347 127L343 132L347 138L349 137L351 140L358 133L356 130L354 131z" id="pilar" title="Pilar"/>

<path class="distrito" d="M439 287L441 287L446 278L444 277L442 282z" id="pinamar" title="Pinamar"/>

<path class="distrito" d="M181 305L180 306L172 297L147 323L146 321L146 382L180 349L176 345L179 341L173 335L176 330L168 323L183 308z" id="puan" title="Puan"/>

<path class="distrito" d="M382 149L379 146L376 148L377 152L379 151z" id="quilmes" title="Quilmes"/>

<path class="distrito" d="M309 85L309 83L298 78L293 73L293 81L286 89L294 91L293 94L295 98L299 99L297 96L309 85z" id="ramallo" title="Ramallo"/>

<path class="distrito" d="M371 245L355 232L356 231L353 228L343 232L332 241L335 243L334 244L339 250L334 256L333 263L329 267L342 279L345 274L359 261L358 259z" id="rauch" title="Rauch"/>

<path class="distrito" d="M169 178L165 181L158 171L153 175L154 176L151 179L150 178L148 180L149 182L146 184L146 213L155 221L181 194L174 186L173 187L170 184L170 179z" id="rivadavia" title="Rivadavia"/>

<path class="distrito" d="M278 118L277 116L268 111L269 110L259 102L250 112L258 121L257 123L254 121L253 124L256 127L259 126L269 136L275 131L275 123L279 119z" id="rojas" title="Rojas"/>

<path class="distrito" d="M340 188L328 182L328 180L323 180L319 183L316 181L313 185L311 183L308 186L311 189L310 190L322 189L323 191L329 193L327 196L337 206L340 202L339 200L342 197L344 198L345 196L343 194L345 190z" id="roque-perez" title="Roque Perez"/>

<path class="distrito" d="M176 330L183 337L187 333L193 340L205 329L207 319L190 296L181 305L183 308L168 323z" id="saavedra" title="Saavedra"/>

<path class="distrito" d="M337 206L327 196L329 193L323 191L322 189L314 189L307 191L305 190L299 194L300 196L297 203L295 200L290 205L295 210L297 207L306 214L307 211L314 210L316 212L327 208L334 208z" id="saladillo" title="Saladillo"/>

<path class="distrito" d="M172 260L158 246L151 254L165 268z" id="salliquelo" title="Salliquelo"/>

<path class="distrito" d="M289 109L285 109L278 118L279 119L275 123L275 131L278 131L282 135L283 133L286 135L289 132L291 133L300 126L301 124L291 119L292 112z" id="salto" title="Salto"/>

<path class="distrito" d="M337 129L331 124L332 123L328 121L326 125L325 124L318 131L315 130L311 133L311 137L317 142L320 139L322 141L336 133L335 131z" id="san-andres-de-giles" title="San Andres De Giles"/>

<path class="distrito" d="M332 117L333 113L331 108L331 110L328 111L325 116L322 114L320 117L315 117L310 120L314 124L316 131L318 131L325 124L326 125L329 120z" id="san-antonio-de-areco" title="San Antonio De Areco"/>

<path class="distrito" d="M331 376L326 367L330 366L330 362L327 360L332 356L330 351L332 345L335 342L317 336L310 342L310 345L300 355L306 359L303 362L305 364L308 361L313 364L317 378L328 377z" id="san-cayetano" title="San Cayetano"/>

<path class="distrito" d="M368 125L369 123L372 123L375 109L370 108L355 113L357 118L360 118L359 122L362 123z" id="san-fernando" title="San Fernando"/>

<path class="distrito" d="M370 135L368 133L364 135L366 137z" id="san-isidro" title="San Isidro"/>

<path class="distrito" d="M293 73L292 70L289 68L285 76L282 78L281 84L279 86L285 90L293 81L292 76z" id="san-nicolas" title="San Nicolas"/><path class="distrito" d="M324 89L321 89L319 91L316 88L309 85L298 96L299 99L310 108L312 108L316 104L319 97z" id="san-vicente" title="San Vicente"/>

<path class="distrito" d="M379 164L377 159L370 164L369 159L364 166L365 172L370 177L375 171L376 172L380 166z" id="san-vicente" title="San Vicente"/>

<path class="distrito" d="M315 140L311 137L303 145L310 152L309 154L317 162L324 156L322 154L322 150L313 143z" id="suipacha" title="Suipacha"/>

<path class="distrito" d="M342 279L329 267L326 278L324 278L314 289L310 290L336 313L337 311L339 314L338 318L341 321L341 323L364 300L346 284z" id="tandil" title="Tandil"/>

<path class="distrito" d="M320 220L319 222L318 221L313 225L309 222L307 225L308 226L302 231L302 234L296 229L289 236L287 234L284 238L276 231L274 232L269 227L266 228L263 231L264 233L261 240L258 243L261 245L266 240L267 241L271 238L280 247L279 249L286 256L288 254L293 260L294 257L298 260L304 254L299 249L301 249L313 235L317 240L328 227z" id="tigre" title="Tigre"/>

<path class="distrito" d="M368 125L362 123L358 130L364 138L364 133L368 133L370 128z" id="tigre" title="Tigre"/>

<path class="distrito" d="M220 343L213 333L209 333L205 329L193 340L187 333L183 337L176 330L173 334L179 341L176 345L180 349L168 360L176 367L180 363L181 367L192 357L194 359L198 354L200 356L200 359L205 354L210 359L212 357L217 361L223 349z" id="tornquist" title="Tornquist"/>

<path class="distrito" d="M194 207L181 194L155 221L180 247L182 251L206 228L190 211z" id="tornquist" title="Tornquist"/>

<path class="distrito" d="M436 237L432 235L429 231L417 228L415 238L421 240L416 246L418 248L415 252L422 257L432 244L435 243L433 241L435 239z" id="tordillo" title="Tordillo"/>

<path class="distrito" d="M308 347L305 343L299 349L283 334L275 344L269 339L267 340L266 355L273 363L272 367L277 387L311 381L317 378L313 364L308 361L305 364L303 362L306 359L300 355L308 348z" id="tres-arroyos" title="Tres Arroyos"/>

<path class="distrito" d="M363 138L363 141L367 144L368 141L366 141z" id="tres-arroyos" title="Tres Arroyos"/>

<path class="distrito" d="M446 278L452 269L451 244L449 238L448 239L450 267L444 277z" id="la-costa" title="La Costa"/>

<path class="distrito" d="M251 391L251 388L234 387L234 391L248 391z" id="monte-hermoso" title="Monte Hermoso"/>

<path class="distrito" d="M308 173L305 170L299 170L289 180L285 176L276 186L280 190L261 210L268 217L271 215L276 219L279 217L295 200L297 203L300 196L299 194L305 190L307 191L311 189L308 186L311 183L313 185L316 181L319 183L323 180L321 179L321 175L319 174L315 176L310 174z" id="vicente-lopes" title="Vicente Lopes"/>

<path class="distrito" d="M368 139L370 135L366 137z" id="25-de-mayo" title="25 De Mayo"/>

<path class="distrito" d="M441 287L439 287L427 306L428 307L440 288z" id="villa-gesell" title="Villa Gesell"/>

<path class="distrito" d="M181 367L180 363L176 367L168 360L146 382L146 410L158 415L160 418L166 421L175 421L185 425L188 429L187 431L191 434L191 436L194 439L196 438L199 439L200 441L204 441L204 431L207 417L199 413L197 410L201 410L206 415L208 415L209 412L207 412L203 408L196 407L197 405L195 403L194 396L195 389L194 384L192 383L191 380L193 378L190 377L188 372L182 369z" id="villarino" title="Villarino"/>

<path class="distrito" d="M353 105L351 102L344 99L340 100L338 98L334 98L332 101L335 103L333 105L330 105L333 113L332 117L341 119L346 116L345 114L347 106L352 106z" id="villarino" title="Villarino"/>

<path class="distrito" d="M182 251L180 247L167 233L162 240L162 243L158 246L172 260L176 257z" id="tres-lomas" title="Tres Lomas"/>

<path class="distrito" d="M193 144L183 142L181 143L181 157L182 165L185 168L188 164L196 172L202 167L201 166L205 162L199 156L199 154L196 154L197 149L200 146z" id="tres-lomas" title="Tres Lomas"/>

<path class="distrito" d="M377 159L379 158L377 156L373 158L372 157L369 159L370 164L372 162z" id="tres-lomas" title="Tres Lomas"/>

<path class="distrito" d="M356 139L359 137L356 134L354 136z" id="malvinas-argentinas" title="Malvinas Argentinas"/>

<path class="distrito" d="M359 132L356 134L359 137L362 136z" id="malvinas-argentinas" title="Malvinas Argentinas"/>

<path class="distrito" d="M421 204L431 189L431 186L424 176L419 179L415 178L412 181L414 181L411 185L408 179L406 180L409 183L406 185L404 184L400 188L405 191L411 189L417 192L416 196L419 203z" id="punta-indio" title="Punta Indio"/>

<path class="distrito" d="M369 159L368 149L366 150L362 157L366 164L366 162z" id="punta-indio" title="Punta Indio"/>

<path class="distrito" d="M361 146L362 143L360 141L358 143z" id="punta-indio" title="Punta Indio"/>

<path class="distrito" d="M362 139L360 141L362 143L363 141z" id="punta-indio" title="Punta Indio"/>

<path class="distrito" d="M384 212L386 216L390 217L391 222L399 216L403 215L405 210L411 211L414 210L415 208L403 205L398 201L393 205L390 203L385 208z" id="lezama" title="Lezama"/>
</g>

</svg>